<?xml version="1.0" encoding="UTF-8" standalone="no"?>
<!-- Created with Inkscape (http://www.inkscape.org/) -->

<svg
   width="600"
   height="200"
   viewBox="0 0 158.75 52.916666"
   version="1.1"
   id="svg5"
   inkscape:version="1.2.2 (732a01da63, 2022-12-09)"
   sodipodi:docname="no-preview.svg"
   xmlns:inkscape="http://www.inkscape.org/namespaces/inkscape"
   xmlns:sodipodi="http://sodipodi.sourceforge.net/DTD/sodipodi-0.dtd"
   xmlns="http://www.w3.org/2000/svg"
   xmlns:svg="http://www.w3.org/2000/svg">
  <sodipodi:namedview
     id="namedview7"
     pagecolor="#ffffff"
     bordercolor="#000000"
     borderopacity="0.25"
     inkscape:showpageshadow="2"
     inkscape:pageopacity="0.0"
     inkscape:pagecheckerboard="0"
     inkscape:deskcolor="#d1d1d1"
     inkscape:document-units="mm"
     showgrid="false"
     inkscape:zoom="2.2097881"
     inkscape:cx="310.66328"
     inkscape:cy="133.49697"
     inkscape:window-width="1832"
     inkscape:window-height="1057"
     inkscape:window-x="2000"
     inkscape:window-y="-8"
     inkscape:window-maximized="1"
     inkscape:current-layer="text234" />
  <defs
     id="defs2">
    <rect
       x="171.05713"
       y="336.68387"
       width="302.29144"
       height="63.354492"
       id="rect236" />
  </defs>
  <g
     inkscape:label="Layer 1"
     inkscape:groupmode="layer"
     id="layer1">
    <g
       aria-label="NO PREVIEW"
       transform="matrix(1.0481318,0,0,1.0481318,-146.56803,-333.33309)"
       id="text234"
       style="white-space:pre;shape-inside:url(#rect236);fill:#dddddd;stroke-width:29.9981;stroke-linejoin:bevel">
      <path
         d="M 180.10352,347.63156 H 177.93555 L 174.23242,341.64328 V 347.63156 H 172.16992 V 338.90695 H 174.85937 L 178.04102,343.905 V 338.90695 H 180.10352 Z"
         style="font-weight:bold;-inkscape-font-specification:'sans-serif Bold'"
         id="path1004" />
      <path
         d="M 190.81445,343.27218 Q 190.81445,345.35812 189.61914,346.58859 188.42383,347.8132 186.31445,347.8132 184.21094,347.8132 183.01562,346.58859 181.82031,345.35812 181.82031,343.27218 181.82031,341.16867 183.01562,339.94992 184.21094,338.72531 186.31445,338.72531 188.41211,338.72531 189.61328,339.94992 190.81445,341.16867 190.81445,343.27218 Z M 187.83203,345.48117 Q 188.16016,345.08273 188.31836,344.54367 188.47656,343.99875 188.47656,343.26632 188.47656,342.48117 188.29492,341.93039 188.11328,341.3796 187.82031,341.03976 187.52148,340.6882 187.12891,340.53 186.74219,340.37179 186.32031,340.37179 185.89258,340.37179 185.51172,340.52414 185.13672,340.67648 184.82031,341.02804 184.52734,341.35617 184.33984,341.93625 184.1582,342.51046 184.1582,343.27218 184.1582,344.05148 184.33398,344.60226 184.51562,345.14718 184.80859,345.49289 185.10156,345.83859 185.49414,346.00265 185.88672,346.16671 186.32031,346.16671 186.75391,346.16671 187.14648,346.00265 187.53906,345.83273 187.83203,345.48117 Z"
         style="font-weight:bold;-inkscape-font-specification:'sans-serif Bold'"
         id="path1006" />
      <path
         d="M 203.83398,341.66085 Q 203.83398,342.24679 203.62891,342.80929 203.42383,343.36593 203.04297,343.74679 202.52148,344.26242 201.87695,344.52609 201.23828,344.78976 200.2832,344.78976 H 198.88281 V 347.63156 H 196.63281 V 338.90695 H 200.33594 Q 201.16797,338.90695 201.73633,339.05343 202.31055,339.19406 202.75,339.48117 203.27734,339.82687 203.55273,340.36593 203.83398,340.905 203.83398,341.66085 Z M 201.50781,341.71359 Q 201.50781,341.34445 201.30859,341.08078 201.10937,340.81125 200.8457,340.70578 200.49414,340.56515 200.16016,340.55343 199.82617,340.53585 199.26953,340.53585 H 198.88281 V 343.14914 H 199.52734 Q 200.10156,343.14914 200.4707,343.07882 200.8457,343.00851 201.09766,342.79757 201.31445,342.61007 201.4082,342.35226 201.50781,342.08859 201.50781,341.71359 Z"
         style="font-weight:bold;-inkscape-font-specification:'sans-serif Bold'"
         id="path1008" />
      <path
         d="M 210.32031,341.57882 Q 210.32031,341.2507 210.18555,341.01632 210.05078,340.78195 209.72266,340.64718 209.49414,340.55343 209.18945,340.53585 208.88477,340.51242 208.48047,340.51242 H 207.66602 V 342.86203 H 208.35742 Q 208.89648,342.86203 209.25977,342.80929 209.62305,342.75656 209.86914,342.56906 210.10352,342.38742 210.20898,342.17062 210.32031,341.94796 210.32031,341.57882 Z M 213.83008,347.63156 H 211.08203 L 208.70312,344.43234 H 207.66602 V 347.63156 H 205.42773 V 338.90695 H 209.20117 Q 209.97461,338.90695 210.53125,338.99484 211.08789,339.08273 211.57422,339.3757 212.06641,339.66867 212.35352,340.13742 212.64648,340.60031 212.64648,341.30343 212.64648,342.27023 212.19531,342.8796 211.75,343.48898 210.91797,343.89328 Z"
         style="font-weight:bold;-inkscape-font-specification:'sans-serif Bold'"
         id="path1010" />
      <path
         d="M 221.125,347.63156 H 214.81445 V 338.90695 H 221.125 V 340.59445 H 217.05273 V 342.10031 H 220.83203 V 343.78781 H 217.05273 V 345.94406 H 221.125 Z"
         style="font-weight:bold;-inkscape-font-specification:'sans-serif Bold'"
         id="path1012" />
      <path
         d="M 230.92187,338.90695 227.74023,347.63156 H 225.2207 L 222.03906,338.90695 H 224.40039 L 226.50977,345.03585 228.61914,338.90695 Z"
         style="font-weight:bold;-inkscape-font-specification:'sans-serif Bold'"
         id="path1014" />
      <path
         d="M 236.89258,347.63156 H 231.7832 V 346.08468 H 233.21289 V 340.45382 H 231.7832 V 338.90695 H 236.89258 V 340.45382 H 235.46289 V 346.08468 H 236.89258 Z"
         style="font-weight:bold;-inkscape-font-specification:'sans-serif Bold'"
         id="path1016" />
      <path
         d="M 245.03711,347.63156 H 238.72656 V 338.90695 H 245.03711 V 340.59445 H 240.96484 V 342.10031 H 244.74414 V 343.78781 H 240.96484 V 345.94406 H 245.03711 Z"
         style="font-weight:bold;-inkscape-font-specification:'sans-serif Bold'"
         id="path1018" />
      <path
         d="M 258.96484,338.90695 256.61523,347.63156 H 254.125 L 252.56055,341.94796 251.03711,347.63156 H 248.54687 L 246.19727,338.90695 H 248.54687 L 249.88867,344.91281 251.49414,338.90695 H 253.73828 L 255.26758,344.91281 256.67383,338.90695 Z"
         style="font-weight:bold;-inkscape-font-specification:'sans-serif Bold'"
         id="path1020" />
    </g>
  </g>
</svg>
